{
  "extensionsUsed": [
    "KHR_lights_punctual"
  ],
  "accessors": [
    {
      "bufferView": 0,
      "componentType": 5126,
      "count": 24,
      "type": "VEC3",
      "max": [
        0.5,
        0.5,
        0.5
      ],
      "min": [
        -0.5,
        -0.5,
        -0.5
      ]
    },
    {
      "bufferView": 1,
      "componentType": 5126,
      "count": 24,
      "type": "VEC3",
      "max": [
        1.0,
        1.0,
        1.0
      ],
      "min": [
        -1.0,
        -1.0,
        -1.0
      ]
    },
    {
      "bufferView": 2,
      "componentType": 5126,
      "count": 24,
      "type": "VEC4",
      "max": [
        1.0,
        0.0,
        1.0,
        1.0
      ],
      "min": [
        0.0,
        0.0,
        -1.0,
        1.0
      ]
    },
    {
      "bufferView": 3,
      "componentType": 5126,
      "count": 24,
      "type": "VEC2",
      "max": [
        1.0,
        1.0
      ],
      "min": [
        0.0,
        0.0
      ]
    },
    {
      "bufferView": 4,
      "componentType": 5126,
      "count": 24,
      "type": "VEC2",
      "max": [
        0.9966580867767334,
        0.99594426155090332
      ],
      "min": [
        0.0040557663887739182,
        0.34716415405273438
      ]
    },
    {
      "bufferView": 5,
      "componentType": 5121,
      "count": 36,
      "type": "SCALAR",
      "max": [
        23.0
      ],
      "min": [
        0.0
      ]
    },
    {
      "bufferView": 6,
      "componentType": 5126,
      "count": 4,
      "type": "VEC3",
      "max": [
        0.5,
        0.25,
        0.0
      ],
      "min": [
        -0.5,
        -0.25,
        0.0
      ]
    },
    {
      "bufferView": 7,
      "componentType": 5126,
      "count": 4,
      "type": "VEC3",
      "max": [
        0.0,
        0.0,
        -1.0
      ],
      "min": [
        0.0,
        0.0,
        -1.0
      ]
    },
    {
      "bufferView": 8,
      "componentType": 5126,
      "count": 4,
      "type": "VEC2",
      "max": [
        1.0,
        1.0
      ],
      "min": [
        0.0,
        0.5
      ]
    },
    {
      "bufferView": 9,
      "componentType": 5121,
      "count": 6,
      "type": "SCALAR",
      "max": [
        3.0
      ],
      "min": [
        0.0
      ]
    }
  ],
  "asset": {
    "version": "2.0"
  },
  "buffers": [
    {
      "uri": "target_2.bin",
      "byteLength": 1514
    }
  ],
  "bufferViews": [
    {
      "buffer": 0,
      "byteLength": 288
    },
    {
      "buffer": 0,
      "byteOffset": 288,
      "byteLength": 288
    },
    {
      "buffer": 0,
      "byteOffset": 576,
      "byteLength": 384
    },
    {
      "buffer": 0,
      "byteOffset": 960,
      "byteLength": 192
    },
    {
      "buffer": 0,
      "byteOffset": 1152,
      "byteLength": 192
    },
    {
      "buffer": 0,
      "byteOffset": 1344,
      "byteLength": 36
    },
    {
      "buffer": 0,
      "byteOffset": 1380,
      "byteLength": 48
    },
    {
      "buffer": 0,
      "byteOffset": 1428,
      "byteLength": 48
    },
    {
      "buffer": 0,
      "byteOffset": 1476,
      "byteLength": 32
    },
    {
      "buffer": 0,
      "byteOffset": 1508,
      "byteLength": 6
    }
  ],
  "images": [
    {
      "uri": "371857150Canvas_(2)Main.png",
      "name": "Canvas_(2)"
    }
  ],
  "materials": [
    {
      "pbrMetallicRoughness": {
        "metallicFactor": 0.0,
        "roughnessFactor": 0.5
      },
      "name": "Default-Material"
    },
    {
      "pbrMetallicRoughness": {
        "baseColorTexture": {
          "index": 0
        },
        "metallicFactor": 0.0
      },
      "alphaMode": "BLEND",
      "doubleSided": true,
      "name": "Hidden/Cognitive/Canvas Export Shader"
    }
  ],
  "meshes": [
    {
      "primitives": [
        {
          "attributes": {
            "POSITION": 0,
            "NORMAL": 1,
            "TANGENT": 2,
            "TEXCOORD_0": 3,
            "TEXCOORD_1": 4
          },
          "indices": 5,
          "material": 0
        }
      ],
      "name": "Target 2"
    },
    {
      "primitives": [
        {
          "attributes": {
            "POSITION": 6,
            "NORMAL": 7,
            "TEXCOORD_0": 8
          },
          "indices": 9,
          "material": 1
        }
      ],
      "name": "Canvas (2)"
    }
  ],
  "nodes": [
    {
      "children": [
        1
      ],
      "mesh": 0,
      "name": "Target 2"
    },
    {
      "children": [
        2,
        4
      ],
      "translation": [
        0.0369974375,
        1.07999992,
        0.00299978256
      ],
      "name": "Canvas (2)"
    },
    {
      "children": [
        3
      ],
      "name": "Image"
    },
    {
      "name": "Text (TMP)"
    },
    {
      "mesh": 1,
      "name": "Canvas (2)"
    }
  ],
  "samplers": [
    {}
  ],
  "scene": 0,
  "scenes": [
    {
      "nodes": [
        0
      ],
      "name": "target_2"
    }
  ],
  "textures": [
    {
      "sampler": 0,
      "source": 0,
      "name": "371857150Canvas_(2)Main"
    }
  ]
}